<svg xmlns="http://www.w3.org/2000/svg" xmlns:xlink="http://www.w3.org/1999/xlink" width="684" height="494" viewBox="0 0 684 494">
  <defs>
    <clipPath id="clip-path">
      <rect id="Rectangle_9145" data-name="Rectangle 9145" width="684" height="494" transform="translate(0 4717)" fill="#fff" stroke="#707070" stroke-width="1"/>
    </clipPath>
  </defs>
  <g id="Mask_Group_2" data-name="Mask Group 2" transform="translate(0 -4717)" clip-path="url(#clip-path)">
    <g id="Group_22032" data-name="Group 22032">
      <rect id="Rectangle_9139" data-name="Rectangle 9139" width="684" height="494" rx="10" transform="translate(0 4717)" fill="#edf6ff"/>
      <path id="Intersection_2" data-name="Intersection 2" d="M0,0Q.342,3.418.766,6.836c3.959,31.7,12.18,62.78,22.523,92.955,9.062,26.437,19.811,52.118,34.079,76.195,13.974,23.581,30.887,45.45,50.92,64.184,21.093,19.727,45.975,36.275,71.414,49.815,13.157,7,27.234,11.985,40.351,19.02a121.692,121.692,0,0,1,32.343,24.5,125.022,125.022,0,0,1,21.733,32.464c5.374,11.713,9.253,24.021,12.879,36.368,7.532,25.645,14.6,51.046,31.6,72.269,5.445,6.8,11.391,13.153,17.462,19.393H688.836V0Z" transform="translate(439 5211) rotate(180)" fill="#dbedff" stroke="rgba(0,0,0,0)" stroke-miterlimit="10" stroke-width="1"/>
      <rect id="Rectangle_9125" data-name="Rectangle 9125" width="67.9" height="146.5" transform="translate(188 4935.64)" fill="none"/>
      <g id="Group_21889" data-name="Group 21889" transform="translate(-107 4763)">
        <path id="Path_43275" data-name="Path 43275" d="M437.2,445.2a60.1,60.1,0,0,0-5.9-30.7c-3.7-7.6-10.4-14.9-21.3-20.1-10.5-5-24.3-7.7-37.9-8.9-36.4-3.2-75.1-1.3-111.7-.7-45.6.7-91.1,1.7-136.7,1.5-22.4-.1-44.8-.2-67.2-.5-11.4-.1-22.8-.5-34.2-.9-7-.2-14.6-.6-21.1-2.1-.4-.1-.8-.2-1.1-.3v65.9H436.3A26.294,26.294,0,0,1,437.2,445.2Z" fill="#bbd0e8"/>
      </g>
      <g id="Group_21985" data-name="Group 21985" transform="translate(-5685 717.154)">
        <path id="Path_43429" data-name="Path 43429" d="M836.174,524.273c-.129-2.326-.6-5.384-2.972-6.46-2.2-1.034-4.781.043-6.762,1.077a91.479,91.479,0,0,0-7.839,4.867,131.959,131.959,0,0,0-18.477,15.074c1.421-1.852,2.756-3.747,4.092-5.642a135.308,135.308,0,0,0,12.49-21.664,19.2,19.2,0,0,0,1.637-5.556c.129-1.335.215-3.316-1.034-4.221-1.206-.861-3.058-.345-4.35.043a23.212,23.212,0,0,0-5.211,2.24,60.117,60.117,0,0,0-9.432,7.106c-3.058,2.67-6.03,5.47-8.829,8.442A133.212,133.212,0,0,0,776.308,535.9q5.814-10.53,11.629-21.1c2.283-4.092,4.565-8.183,6.547-12.447.948-2.067,1.852-4.135,2.627-6.245a28.044,28.044,0,0,0,1.55-5.556,5.778,5.778,0,0,0-.732-4.221,3.856,3.856,0,0,0-3.919-1.335c-3.532.56-6.934,3.187-9.432,5.6-5.685,5.384-9.131,12.749-11.758,20.027a99.414,99.414,0,0,0-5.556,24.98,18.6,18.6,0,0,0-3.359-3.532c-.215-.172-.517.129-.3.3a19.036,19.036,0,0,1,3.618,3.833c-.172,1.809-.258,3.618-.345,5.47a.217.217,0,0,0,.431,0c.043-1.637.129-3.273.3-4.91,4.738,6.891,5.944,16.194,11.629,22.568a34.6,34.6,0,0,0,6.633,5.642,63.506,63.506,0,0,0,7.839,4.781,6.468,6.468,0,0,0,7.063-.388c2.627-1.852,4.824-4.393,7.15-6.59,5.211-4.953,10.423-9.863,15.591-14.859,4.436-4.307,8.829-8.915,11.112-14.73A20.547,20.547,0,0,0,836.174,524.273Z" transform="translate(5093.246 3860.803)" fill="#5c7557"/>
        <path id="Path_43431" data-name="Path 43431" d="M767.2,455.277q-22.159-25.519-42.553-52.5-20.415-27-38.935-55.431-10.4-15.893-20.157-32.173c-.129-.215-.517-.043-.388.215q17.508,29.137,36.954,57.067,19.252,27.586,40.313,53.837,11.952,14.859,24.464,29.287C767.068,455.75,767.37,455.492,767.2,455.277Z" transform="translate(5149.258 3957.494)" fill="#421818"/>
        <path id="Path_43432" data-name="Path 43432" d="M565.334,389.087C546,351.4,524.375,293.9,522.479,294.98c-1.809,1.034-6.288,9.6-7.236,11.37-2.713,5.082-31.441,55.56-44.835,74.6A608.075,608.075,0,0,1,426.865,435.9c-.689.732-1.335,1.507-2.024,2.24-.086.474-.172.9-.3,1.378-1.034,5.211-1.981,10.423-3.273,15.591-.6,2.326-1.206,4.652-1.766,7.02,8.657.258,19.123.517,30.666.775,44.189.861,103.583,1.378,131.965.991,7.8-.129,13.265-.3,15.462-.56a.2.2,0,0,0,.215-.215c.129-6.59.258-13.222.431-19.812C598.282,442.02,581.14,419.882,565.334,389.087Z" transform="translate(5289.102 3968.941)" fill="#9db7d1"/>
        <path id="Path_43433" data-name="Path 43433" d="M591.225,505.378c-16.625-14.514-26.014-37.471-29.847-58.962a150.186,150.186,0,0,1-1.551-42.122.2.2,0,0,0-.215-.215.192.192,0,0,0-.258.129c-2.8,11.284-5.728,22.568-8.786,33.767-2.843,10.38-5.6,20.846-9.992,30.666a76.606,76.606,0,0,1-16.582,23.731,86.756,86.756,0,0,1-23.171,15.936c-2.11,1.034-4.522,1.809-6.2,3.575-1.809,1.9-2.154,4.738-2.67,7.236-.431,1.938-.818,3.876-1.249,5.814,44.189.861,103.582,1.378,131.965.991C606.73,520.281,595.359,509,591.225,505.378Z" transform="translate(5248.567 3906.832)" fill="#57718d"/>
        <path id="Path_43498" data-name="Path 43498" d="M767.695,633.7a82.079,82.079,0,0,1-28.641-26.919c-.129-.215-.517,0-.388.215a82.69,82.69,0,0,0,28.814,27.091C767.738,634.174,767.953,633.83,767.695,633.7Z" transform="translate(5107.415 3791.474)" fill="#421818"/>
        <path id="Path_43499" data-name="Path 43499" d="M898.64,660.064h.948c.6-7.236,1.206-14.428,1.809-21.664-1.077.086-2.11.172-3.187.258-.6,7.15-1.206,14.256-1.809,21.406Z" transform="translate(5017.601 3773.423)" fill="#421818"/>
      </g>
      <g id="Group_21976" data-name="Group 21976" transform="translate(185.941 5081.938)">
        <path id="Path_43324" data-name="Path 43324" d="M25.4,56c.1,4-4.2,7.3-9,9.3-.2.2-.4.5-.6.7H1.5A64.466,64.466,0,0,1,.7,43.2c.3.2,1.2.1,1.7.3a3.083,3.083,0,0,0,.1,1A55.979,55.979,0,0,1,3.4,33c.8-4.1,2.4-7.2,5-4.7a26.174,26.174,0,0,1,.3-5.9c.5-2.3,1.4-4.3,3.5-4.1.2,2.9.1,5.8.1,8.6.1-2.8.1-11.8,2.2-17.5A10.336,10.336,0,0,1,18,4.8c1.5-1.1,3-1.3,3.5.6-.7,3.4-3.5,6.2-3.9,9.8.8-5.1,6.1-10.2,12-13,3.4-1.6,7-2.5,9.9-2,1.9.3,3.1.8,3.6,1.4,1.5,1.9-2.6,5.2-7.1,8-4.4,2.8-9.2,5.2-9.7,5.7a20.841,20.841,0,0,1,7.2-.2c3.1.5,5.6,2.1,4.6,5.7a4.958,4.958,0,0,1-2.8,3.3c-3.9,1.9-10.3.4-13.4,2.3v1c1.7.1,8.9-.4,12.5,1.3,1.8.9,2.7,2.3,1.6,4.7-1.6,3.3-10.5,2.4-13.4,2.8-4,.6-7.1,3.4-6.8,7.9,1.8.4,5-1.8,8.1-3.1,1.9-.8,3.7-1.3,5.2-.7A4.554,4.554,0,0,1,31.4,43c.9,2.4-1.9,4.5-5.2,6.6-4,2.4-9,4.7-9.8,7.3,2.4-.2,4.2-1.2,6.3-1.3A10.322,10.322,0,0,1,25.4,56Z" fill="#f47522"/>
        <g id="Group_21972" data-name="Group 21972">
          <g id="Group_21971" data-name="Group 21971">
            <path id="Path_43325" data-name="Path 43325" d="M4.8,66.3h0a.215.215,0,0,0,.2-.2A82.637,82.637,0,0,1,15.7,25.9C22.2,14.2,29.4,7.4,30.1,7h0c.1,0,.2-.2.2-.3a.215.215,0,0,0-.2-.2h0c-.6,0-8.1,7.2-14.8,19.2A80.968,80.968,0,0,0,4.6,66.1.215.215,0,0,0,4.8,66.3Z" fill="#fff"/>
          </g>
        </g>
        <g id="Group_21973" data-name="Group 21973">
          <path id="Path_43326" data-name="Path 43326" d="M18,22c.1,0,.1,0,.2-.1a9.486,9.486,0,0,1,5.4-3.2c.1,0,.2-.2.2-.3s-.2-.2-.3-.2a10.322,10.322,0,0,0-5.3,2.9v-.8c0-1.7,0-3.7.6-4.8a.224.224,0,1,0-.4-.2c-.7,1.2-.7,3.3-.7,5.1v1.4c.1.1.2.2.3.2Z" fill="#fff"/>
        </g>
        <g id="Group_21974" data-name="Group 21974">
          <path id="Path_43327" data-name="Path 43327" d="M10.3,36.5h.1a1.555,1.555,0,0,0,.6-.8c.1-.2.1-.3.2-.4a4.129,4.129,0,0,1,1.1-.7,5.736,5.736,0,0,0,.7-.4,2.186,2.186,0,0,1,.5-.3c1-.6,3-1.9,3.7-1.7a.1.1,0,0,1,.1.1c.1.1.2.2.3.1s.2-.2.1-.3a.781.781,0,0,0-.4-.4c-.8-.2-2.5.7-4.1,1.7a2.186,2.186,0,0,0-.5.3l-.6.3a7.459,7.459,0,0,0-1.2.7h0a25.551,25.551,0,0,0,.4-6.2V27a.2.2,0,1,0-.4,0v1.5c0,2.6.1,5.1-.8,7.5a.367.367,0,0,0,.1.3C10.2,36.5,10.3,36.5,10.3,36.5Z" fill="#fff"/>
        </g>
        <g id="Group_21975" data-name="Group 21975">
          <path id="Path_43328" data-name="Path 43328" d="M5.5,54.7a.215.215,0,0,0,.2-.2c1.2-3.1,4.1-4.7,6.9-6.2.8-.5,1.7-1,2.5-1.5a.224.224,0,1,0-.2-.4c-.8.5-1.7,1-2.5,1.5C9.9,49.3,7.4,50.7,6,53a12.212,12.212,0,0,0-.1-2.7c0-.6-.1-1.2-.1-1.7a14.084,14.084,0,0,0-.1-2c-.1-2-.3-4.3.5-5.7a.192.192,0,0,0-.1-.3.192.192,0,0,0-.3.1c-.9,1.5-.8,3.9-.6,6a14.084,14.084,0,0,1,.1,2,10.284,10.284,0,0,0,.1,1.7,11,11,0,0,1-.2,4.1.37.37,0,0,0,.3.2Z" fill="#fff"/>
        </g>
      </g>
      <g id="Group_21983" data-name="Group 21983" transform="translate(-5493 1089)">
        <g id="Group_21981" data-name="Group 21981" transform="translate(5623.972 3894.873)">
          <path id="Path_43374" data-name="Path 43374" d="M199.644,627.4c1.219.084.8-.168,1.808.589a1.069,1.069,0,0,1,.336.421,1.157,1.157,0,0,1,1.346,1.135c.336,6.9,1.6,13.75,1.682,20.646A1.393,1.393,0,0,1,203.3,651.7c-1.724-.168-1.177-.294-2.859-.757-.42-.126-1.43-2.691-1.514-3.154-.378-3.49-1.388-15.306-1.43-18.838C197.542,628.113,198.719,627.356,199.644,627.4Z" transform="translate(-141.663 -487.303)" fill="#f79884"/>
          <path id="Path_43375" data-name="Path 43375" d="M198.05,674.083c1.64-.168,5.256-.042,7.064,0,.8.084,1.051.589,1.009.841-.294,2.06,1.6,1.934,4.079,3.238a41.946,41.946,0,0,0,7.611,3.112c3.027.967,2.733.463,2.733,2.4,0,1.388-3.154,1.135-5.677.925-.42-.042-.8-.042-1.219-.084a12.023,12.023,0,0,1-3.49-.757l-.631-.252a13.979,13.979,0,0,0-5.592-.925.346.346,0,0,0-.252.168c-.042.21-.042.336-.084.547a.734.734,0,0,1-.757.631c-.841-.042-1.64-.084-2.481-.168-1.556-.126-3.027-.168-3.28-.547-.252-.463-.126-.5-.126-.967C197.083,681.063,197.461,674.125,198.05,674.083Z" transform="translate(-141.329 -514.309)" fill="#1f2144"/>
          <path id="Path_43376" data-name="Path 43376" d="M220.664,683.6c-.126.252.21.463.336.21l.883-1.64c.126-.252-.252-.463-.336-.21Zm-2.018-.967c-.126.252.21.463.336.21a13.425,13.425,0,0,1,1.093-1.6c.168-.21-.21-.42-.336-.21A15.226,15.226,0,0,0,218.646,682.632Zm-2.1-.883a10.911,10.911,0,0,1,1.64-1.051c.252-.126,0-.463-.252-.336a13.533,13.533,0,0,0-1.64,1.051C216.081,681.581,216.333,681.917,216.543,681.749Z" transform="translate(-152.506 -517.981)" fill="#464a8a"/>
          <path id="Path_43377" data-name="Path 43377" d="M197.105,691.977c.042-.336.084-.757.126-1.177a29.506,29.506,0,0,0,5.8.547,25.22,25.22,0,0,1,5.634.715,49.667,49.667,0,0,0,11.942,1.472,4.358,4.358,0,0,1-.042.673c-.042,1.388-3.154,1.009-5.719.757-.42-.042-.8-.084-1.177-.126a12.9,12.9,0,0,1-3.49-.883c-.21-.084-.421-.168-.589-.252a13.91,13.91,0,0,0-5.55-1.093.262.262,0,0,0-.252.168c-.042.21-.042.336-.084.547a.736.736,0,0,1-.8.589c-.8-.084-1.64-.126-2.481-.21-1.556-.168-3.027-.252-3.238-.673C196.937,692.524,197.063,692.44,197.105,691.977Z" transform="translate(-141.394 -524.046)" fill="#464a8a"/>
          <path id="Path_43378" data-name="Path 43378" d="M84.6,619.191c1.219.084.8-.168,1.808.631a.949.949,0,0,1,.336.463,1.165,1.165,0,0,1,1.346,1.177c.21,6.9,1.388,13.75,1.346,20.688a1.373,1.373,0,0,1-1.556,1.472c-1.724-.21-1.177-.294-2.817-.8-.42-.126-1.388-2.733-1.43-3.154-.336-3.49-1.135-15.306-1.135-18.838C82.456,619.864,83.676,619.107,84.6,619.191Z" transform="translate(-75.017 -482.544)" fill="#f79884"/>
          <path id="Path_43379" data-name="Path 43379" d="M95.575,680.853c-.883-2.229-3.532-3.49-3.532-6.055a.155.155,0,0,0-.042-.126,23.612,23.612,0,0,0-.084-3.448,1.674,1.674,0,0,0-.757-1.472,3.418,3.418,0,0,0-1.6-.168c-.715-.042-3.28-.084-3.995-.084-.589,0-.841.252-.841.421a89.555,89.555,0,0,0,0,9.5,1.3,1.3,0,0,0,.631,1.346,3.435,3.435,0,0,1,1.219,1.556,1.4,1.4,0,0,0,.631.673,9,9,0,0,0,2.985.42c1.388.126,2.775.168,4.163.168C95.953,684.007,96,681.9,95.575,680.853Z" transform="translate(-76.235 -511.703)" fill="#1f2144"/>
          <path id="Path_43380" data-name="Path 43380" d="M92.138,678.851c-.252,0-.294.421-.042.421.631,0,2.1.042,2.691.042.252,0,.294-.421.042-.421C94.24,678.893,92.768,678.851,92.138,678.851Zm-.42-4.751c-.252,0-.294.42,0,.42.631,0,2.144,0,2.775.084.252.042.294-.378,0-.421C93.862,674.1,92.348,674.1,91.717,674.1Zm.21,2.313c-.252,0-.294.421,0,.421.631,0,2.144,0,2.775.084.252.042.294-.378,0-.421C94.072,676.413,92.6,676.413,91.927,676.413Z" transform="translate(-80.241 -514.368)" fill="#464a8a"/>
          <path id="Path_43381" data-name="Path 43381" d="M95.817,693.37h0c-2.775.252-5.046.589-7.316-.252-1.346-.5-1.556-1.346-2.607-2.145A9.513,9.513,0,0,0,84.8,690.3c0,.42.042.8.042,1.219.042.715.126,1.009.631,1.346a3.435,3.435,0,0,1,1.219,1.556,1.4,1.4,0,0,0,.631.673,9,9,0,0,0,2.985.421c1.388.126,2.775.168,4.163.168C95.859,696.019,96.069,694.463,95.817,693.37Z" transform="translate(-76.351 -523.757)" fill="#464a8a"/>
          <path id="Path_43382" data-name="Path 43382" d="M133.537,391.935c.336-18.754-3.953-37.129-8.536-55.21-2.649-10.428-5.382-20.814-7.4-31.41a.672.672,0,0,0-.21-.42c-.294-1.388-.589-2.817-.967-4.163a4.731,4.731,0,0,0-3.995-3.868c-2.985-.547-6.223-.378-9.251-.547-3.616-.168-7.232-.336-10.849-.547a.9.9,0,0,0-.5.126q-11.353-.946-22.706-.883c.042-1.051-1.6-1.051-1.682,0-1.514,23.505-3.112,47.052-2.649,70.6.463,23.085,1.976,46.169,3.027,69.212.168,3.28.294,6.6.463,9.881.084,1.64.084,3.322.21,4.962a3.124,3.124,0,0,0,.631,2.018c1.388,1.514,5.172,1.135,6.98,1.219a66.472,66.472,0,0,0,9.587-.378c.42-.042.883-.336.841-.8-.757-9.966,1.6-19.679,3.406-29.392A102.865,102.865,0,0,0,91.7,408.5c.252-5.172.042-10.344.042-15.516,0-13.119,1.892-27.626,2.985-40.787,2.439,5.214,4.836,10.428,7.274,15.642,3.027,6.517,6.6,13.077,8.62,20.015a25.787,25.787,0,0,1,1.051,10.26c-.378,3.322-1.472,6.56-1.514,9.881a13.243,13.243,0,0,0,2.355,7.611,11.753,11.753,0,0,1,1.934,3.742c.463,1.976-.463,4.121-.883,6.055-1.682,8.031-.967,16.231-.21,24.3a1.041,1.041,0,0,0,1.051,1.051,101.217,101.217,0,0,1,14.717.715,1.016,1.016,0,0,0,1.051-1.051C128.786,430.83,133.2,411.488,133.537,391.935Z" transform="translate(-64.707 -294.225)" fill="#464a8a"/>
          <path id="Path_43400" data-name="Path 43400" d="M142.634,381.31c-1.85,4.92-3.7,9.881-5.55,14.8-.084.252.294.378.42.126,1.85-4.92,3.7-9.881,5.55-14.8C143.138,381.184,142.718,381.058,142.634,381.31Z" transform="translate(-106.643 -344.613)" fill="#1f2144"/>
          <path id="Path_43401" data-name="Path 43401" d="M82.679,311.252a17.478,17.478,0,0,1-2.355,6.9c-1.219,1.976-3.238,4.583-5.634,5.088-.252.042-.168.463.084.42,2.439-.463,4.415-2.985,5.677-4.962a17.2,17.2,0,0,0,2.607-7.358C83.142,311,82.721,311,82.679,311.252Z" transform="translate(-70.404 -303.988)" fill="#1f2144"/>
          <path id="Path_43402" data-name="Path 43402" d="M177.654,323.393c-4.92-.673-6.56-5.929-6.938-10.176-.042-.252-.463-.294-.42,0,.378,4.5,2.187,9.881,7.316,10.6C177.907,323.813,177.907,323.393,177.654,323.393Z" transform="translate(-125.895 -305.112)" fill="#1f2144"/>
          <path id="Path_43403" data-name="Path 43403" d="M187.239,495.11c-1.766,4.163-3.532,8.368-5.256,12.53-.084.252.294.378.42.126,1.766-4.163,3.532-8.368,5.256-12.53C187.786,494.984,187.366,494.858,187.239,495.11Z" transform="translate(-132.663 -410.561)" fill="#1f2144"/>
          <path id="Path_43404" data-name="Path 43404" d="M184.822,525.51c-.8,2.1-1.64,4.163-2.439,6.265-.084.252.294.378.42.126.8-2.1,1.64-4.163,2.439-6.265C185.327,525.384,184.906,525.258,184.822,525.51Z" transform="translate(-132.895 -428.179)" fill="#1f2144"/>
        </g>
        <path id="Path_43335" data-name="Path 43335" d="M77.272,150.826c-.729-4.45-1.88-8.9-1.726-13.426a40.765,40.765,0,0,1,1.036-6.483,34.608,34.608,0,0,0,.575-7.174c-.077-4.718-.767-9.36-1.036-14.078a36.853,36.853,0,0,1,1.3-13.273c1.112-3.606,2.724-7.174,6.176-8.976,3.146-1.65,6.79-1.88,10.2-2.532a23.418,23.418,0,0,0,5.754-1.841,23.794,23.794,0,0,1,5.831-2.225c4.527-.767,9.092.537,13.58.959a19.014,19.014,0,0,0,7.058-.5,17.816,17.816,0,0,1,2.839-.614.154.154,0,0,1,.077-.23,14.8,14.8,0,0,1,9.859-.882c3.568.882,6.061,3.222,8.785,5.562a16.611,16.611,0,0,0,5.524,3.222c1.841.614,3.721,1.036,5.6,1.65a25.223,25.223,0,0,1,9.168,5.025,15.563,15.563,0,0,1,5.025,8.554,13.22,13.22,0,0,1,.077,4.757c-.192,1.189-.614,3.184-1.688,3.951a2.86,2.86,0,0,1-1.88.307c-1.074-.115-2.11-.345-3.184-.537-2.148-.384-4.3-.806-6.483-1.151-4.373-.69-8.9-.959-13.2.307-3.452,1.036-6.636,2.8-10.2,3.031-.115.46-.23.959-.307,1.458a20.326,20.326,0,0,0-.269,5.908c.345,3.8,1.5,7.442,2.187,11.163a24.042,24.042,0,0,1,.23,9.36,12.344,12.344,0,0,1-1.726,4.3c-.882,1.381-1.956,2.609-2.762,4.066-2.033,3.568-1.726,7.864-1.419,11.777a.181.181,0,0,1-.192.192c-14.347-.729-28.847-1.5-43.118.691A94.734,94.734,0,0,0,77.2,165.71a.19.19,0,0,1-.23-.23,56.24,56.24,0,0,0,.921-7.6A42.739,42.739,0,0,0,77.272,150.826Z" transform="translate(5543.813 3737.707)" fill="#421818"/>
        <path id="Path_43336" data-name="Path 43336" d="M210.7,101.559a2.554,2.554,0,0,0,2.609.115c.192-.153.384.192.192.345a3.156,3.156,0,0,1-3.031-.115A.209.209,0,0,1,210.7,101.559Z" transform="translate(5451.66 3723.869)" fill="#d38262"/>
        <path id="Path_43337" data-name="Path 43337" d="M199.055,26.415c.038,0,.077.038.115.038a36.479,36.479,0,0,0,5.716,1.036c.575.115,1.112.23,1.688.345,4.066.844,8.056,1.918,12.084,2.915a97.408,97.408,0,0,1,.691,17.991,18.479,18.479,0,0,1-3.874,9.859c-1.956,2.609-3.836,4.066-6.406,2.839-2.839-1.343-6.982-2.954-9.015-5.562a49.734,49.734,0,0,1-3.529-4.91,27.057,27.057,0,0,1-2.417-5.371,50.082,50.082,0,0,1-2.762-11.777,17.2,17.2,0,0,1,.69-7.519C194.375,26.415,196.715,26.415,199.055,26.415Z" transform="translate(5453.065 3770.243)" fill="#f7a37a"/>
        <path id="Path_43340" data-name="Path 43340" d="M207.047,74.7c.844-.115,2.033-.077,2.532-.882a2.642,2.642,0,0,0-.038-2.34c-.5-1.381-1.151-2.724-1.688-4.066-.077-.23.269-.345.384-.115.46,1.112.921,2.187,1.381,3.3a5.411,5.411,0,0,1,.614,2.455c-.115,1.8-1.726,1.918-3.184,2.11A.24.24,0,0,1,207.047,74.7Z" transform="translate(5456.351 3745.049)" fill="#d38262"/>
        <path id="Path_43341" data-name="Path 43341" d="M207.367,94.273a2.973,2.973,0,0,0,2.493-.307,1.416,1.416,0,0,1,.882-.269.584.584,0,0,1,.537.422,1.372,1.372,0,0,1,1.381-.422.682.682,0,0,1,.422.806,1.751,1.751,0,0,1-1.189.959,6.056,6.056,0,0,1-4.68-.882C207.06,94.464,207.213,94.234,207.367,94.273Z" transform="translate(5453.384 3728.739)" fill="#d38262"/>
        <path id="Path_43342" data-name="Path 43342" d="M249.054,68.407a2.428,2.428,0,0,1,2.8.614.171.171,0,0,1-.115.307,49.714,49.714,0,0,1,.69,6.752.192.192,0,0,1-.23.192,6.156,6.156,0,0,1-4.066-5.217A2.624,2.624,0,0,1,249.054,68.407Z" transform="translate(5398.347 3744.439)" fill="#f7a37a"/>
        <path id="Path_43343" data-name="Path 43343" d="M178.009,14.3a6.17,6.17,0,0,1-1.419-3.644A2.715,2.715,0,0,1,178.2,8.273a4.858,4.858,0,0,1,1.765-5.524,6.327,6.327,0,0,1,6.713.038A10.181,10.181,0,0,1,192.088.025,4.566,4.566,0,0,1,196,.831a4.013,4.013,0,0,1,.806,1.419c.192.345.192.307.652.345.384.038.806.077,1.189.115,2.877.384,5.908,1.65,7.327,4.335a18.576,18.576,0,0,1,.69,1.88c.384,1.074,1.266,1.534,2.071,2.225a6.924,6.924,0,0,1,2.378,3.529c.575,2.3-.959,5.1-3.376,5.1-.269.192-.537.384-.767.537a7.263,7.263,0,0,1-1.8.921,8.34,8.34,0,0,1-3.874.5,22.736,22.736,0,0,0-5.1-.422,27.76,27.76,0,0,0-5.332,1.3,42.036,42.036,0,0,1-5.179,1.534c-1.189.192-2.417-.767-3.337-1.419a21.224,21.224,0,0,1-3.376-2.762c-.959-.959-2.225-2.148-2.378-3.529A2.168,2.168,0,0,1,178.009,14.3Z" transform="translate(5466.975 3786.506)" fill="#a67a6f"/>
        <path id="Path_43344" data-name="Path 43344" d="M248.8,72.433c.5.806.345,2.724,1.611,2.8a.193.193,0,0,1,0,.384c-1.573-.115-1.3-1.995-1.918-2.992A.182.182,0,1,1,248.8,72.433Z" transform="translate(5400.063 3741.871)" fill="#d38262"/>
        <path id="Path_43345" data-name="Path 43345" d="M60.192,89.1c2.3-2.3,5.677-4.066,6.253-7.6.575-3.414-2.647-4.488-4.45-6.713a3.22,3.22,0,0,1-.652-3.184c.614-1.88,3.721-5.371,3.951-5.217a14.14,14.14,0,0,0,4.22,2.455c2.033.729,3.913.345,6.023.192,3.759-.269,6.752,2.148,9.629,4.22,3.529,2.493,7.02,4.987,10.549,7.442,1.688,1.189,3.414,2.417,5.1,3.606a27.368,27.368,0,0,1,4.22,3.337c3.874,4.028,5.677,12.889-.153,16.112-3.031,1.688-6.6,1.228-9.9.729a44.51,44.51,0,0,0-12.966-.115c-4.412.652-8.631,2.34-13.119,2.455a121.337,121.337,0,0,1-13.963-.921.181.181,0,0,1-.192-.192C54.9,99.92,55.858,93.437,60.192,89.1Z" transform="translate(5616.325 3745.534)" fill="#421818"/>
        <path id="Path_43346" data-name="Path 43346" d="M178.827,273.035c.23-1.151.384-2.685,1.65-3.184a11,11,0,0,1,2.187-.422c.921-.153,14.731-2.11,18.874-2.34,1.074-.038,2.263.038,2.609,1.266a5.759,5.759,0,0,1,.115,1.419.141.141,0,0,1,.038.115c0,.614,0,1.228-.038,1.841,4.872-.767,16.725-2.263,20.907-2.954,3.683-.614,7.327-1.151,11.048-1.611h.077a.2.2,0,0,1,.345.115,42.01,42.01,0,0,1-.23,6.6.2.2,0,0,1-.153.192c-8.439,1.228-24.091,3.031-32.568,4.1a9.507,9.507,0,0,1-.575,2.11c-1,2.455-3.376,3.644-5.793,4.373-3.337,1-10.473,1.343-14.194,1.573-1.266.077-3.184.575-4.3-.269a3.4,3.4,0,0,1-1.036-2.724A45.852,45.852,0,0,1,178.827,273.035Z" transform="translate(5441.069 3621.828)" fill="#eeded4"/>
        <path id="Path_43350" data-name="Path 43350" d="M168.429,37.252c.767-.192,1.573-.192,2.378-.384.882-.23,1.726-.652,2.57-.959a4.862,4.862,0,0,1,3.874-.038c1.228.652,1.841,2.148,2.417,3.376a32.892,32.892,0,0,1,1.726,4.949,24.194,24.194,0,0,0,1.074,3.337,14.94,14.94,0,0,0-3.452,3.836c-.153.23-.307.5-.46.767-.345-.269-.652-.575-.882-.767-.921-.69-1.8-1.419-2.724-2.11-1.343-1.036-2.839-1.841-2.992-3.644-.192-2.033-.115-4.143-.153-6.214-.5.038-.921.115-1.3.153-.921.115-2.8.384-3.376-.652C166.626,37.981,167.738,37.444,168.429,37.252Z" transform="translate(5499.418 3764.585)" fill="#f7a37a"/>
        <path id="Path_43354" data-name="Path 43354" d="M183.075,89.732a6.732,6.732,0,0,0,1.151-.921c.691,1.765,1.88,3.414,3.913,3.491,2.647.115,3.146-2.685,3.107-4.718a136.724,136.724,0,0,0-1.189-14.807.206.206,0,0,1,.192-.192l1.765.115v-.077c-.038-.23.345-.23.384,0a108.17,108.17,0,0,1,.652,11.7c0,1.841-.038,3.721-.192,5.562a8.876,8.876,0,0,1-.882,3.759c-1.228,2.187-3.913,2.378-5.946,1.266a8.47,8.47,0,0,1-3.529-4.872A3.909,3.909,0,0,0,183.075,89.732Z" transform="translate(5482.892 3741.796)" fill="#de6b45"/>
        <path id="Path_43359" data-name="Path 43359" d="M150.2,87.438c2.532,1.8,1.918,5.1,2.11,7.749.269,3.491,2.877,5.831,5.371,7.979.192.153-.077.422-.269.269-2.033-1.726-4.22-3.644-5.1-6.253-1-2.992.652-7.327-2.3-9.437C149.816,87.63,150.007,87.284,150.2,87.438Z" transform="translate(5530.691 3732.582)" fill="#565a94"/>
        <path id="Path_43360" data-name="Path 43360" d="M276.642,281.116c3.414-.038,6.9.077,10.357-.192a7.843,7.843,0,0,0,6.943-5.025c.077-.23.46-.115.384.115a8,8,0,0,1-5.831,5.1,29.476,29.476,0,0,1-5.524.307c-2.11.038-4.181.077-6.291.077C276.412,281.537,276.412,281.154,276.642,281.116Z" transform="translate(5345.556 3616.47)" fill="#421818"/>
        <path id="Path_43351" data-name="Path 43351" d="M225.627,39c2.148-2.11,1.956-5.447,2.839-8.133.077-.269.192-.575.307-.921.5-2.148,2.839-3.759,4.6-4.8.729-.422,1.995-1.189,2.839-.652a1.144,1.144,0,0,1,.46.652,1.463,1.463,0,0,1,.575-.038c2.225.077,2.57,3.146,2.762,4.949.882.345,1.841.46,2.685.882.384.192,1.074.537.882,1.036s-1.112.614-1.534.575c-1.266-.038-2.493-.882-3.721-.269a5.545,5.545,0,0,0-1.5,1.228c-.345,1.189-2.071,3.414-2.455,4.335A43.65,43.65,0,0,1,232.57,42a4.02,4.02,0,0,1-2.34,1.611,34.969,34.969,0,0,1-4.3,1.381c-.077,0-.192,0-.23-.077-.345-.767-.69-1.534-1.036-2.34a6.868,6.868,0,0,1-.729-1.726C223.709,39.887,225.128,39.542,225.627,39Z" transform="translate(5416.442 3771.463)" fill="#f7a37a"/>
        <path id="Path_43352" data-name="Path 43352" d="M266.484,75c4.3-3.644,9.782-4.1,15.114-5.1a22.161,22.161,0,0,0,8.133-2.992c2.263-1.458,4.258-3.337,6.521-4.8a15.074,15.074,0,0,1,7.289-2.493c2.992-.23,6.023.192,9.015.192,1.573,0,4.488-1,4.565-.767.537,1.419,2.072,6.445,1.419,7.327-.729,1-2.647,1.074-3.337,2.148-.844,1.3-.307,2.954.46,4.143.767,1.151,1.8,2.11,2.493,3.3a9.645,9.645,0,0,1,1.151,2.915,7.89,7.89,0,0,1-.921,5.946c-1.381,2.072-3.759,2.685-5.908,3.606-2.839,1.189-4.527,3.529-6.176,5.984-1.458,2.148-3.031,4.143-5.716,4.718a11.854,11.854,0,0,1-7.25-1.036c-2.762-1.189-5.179-2.992-7.941-4.181a12.52,12.52,0,0,0-4.987-1.189,13.882,13.882,0,0,0-4.6,1.074c-2.609.844-5.294.115-7.711-1a10.409,10.409,0,0,1-5.217-4.872C260.845,83.365,262.839,78.11,266.484,75Z" transform="translate(5325.908 3750.081)" fill="#421818"/>
        <path id="Path_43353" data-name="Path 43353" d="M241.748,77.582a11.044,11.044,0,0,0,1.189-.5.545.545,0,0,1,.23-.077,63.2,63.2,0,0,0,.384,10.779c.192,1.65.614,4.412,2.839,4.373,1.918-.038,2.417-2.915,2.877-4.335,1.112-3.337,2.417-6.675,2.609-10.242.153-3.069-.115-6.214,1.112-9.13a.237.237,0,0,1,.269-.077l1.3.767c.038-.192.077-.422.115-.614.038-.23.422-.153.384.115-.038.23-.077.5-.115.729h0a.189.189,0,0,1-.077.345c-.614,3.568-1.228,7.135-1.88,10.7-.384,1.918-.729,3.874-1.112,5.793a35.489,35.489,0,0,1-1.228,5.217c-.806,2.225-2.839,4.565-5.486,4.066-2.609-.5-3.184-3.491-3.414-5.716a67.355,67.355,0,0,1-.153-12.122A.153.153,0,0,1,241.748,77.582Z" transform="translate(5398.288 3744.317)" fill="#de6b45"/>
        <path id="Path_43358" data-name="Path 43358" d="M283.753,118.642c5.064-1.112,10.242-2.071,15.268-3.376,2.148-.575,4.181-1.5,5.217-3.568.844-1.65,1.228-3.568,2.685-4.872.192-.153.46.115.269.269-1.611,1.419-1.841,3.644-2.954,5.371a7.776,7.776,0,0,1-4.565,2.992c-2.455.729-4.987,1.151-7.48,1.688-2.762.614-5.562,1.228-8.324,1.841A.182.182,0,1,1,283.753,118.642Z" transform="translate(5329.89 3720.635)" fill="#565a94"/>
      </g>
      <g id="Group_21997" data-name="Group 21997" transform="translate(155 4889)">
        <g id="Group_21987" data-name="Group 21987" transform="translate(12.207 5.644)">
          <path id="Path_43500" data-name="Path 43500" d="M308.941,47.4h-1.909c-1.957,0-3.532,2.16-3.532,4.821s1.587,4.821,3.532,4.821h1.909Z" transform="translate(-303.5 -47.388)" fill="#ddb898"/>
          <ellipse id="Ellipse_2227" data-name="Ellipse 2227" cx="3.532" cy="4.821" rx="3.532" ry="4.821" transform="translate(1.909)" fill="#cfa58a"/>
          <g id="Group_21986" data-name="Group 21986" transform="translate(3.162 1.122)">
            <path id="Path_43501" data-name="Path 43501" d="M269.446,56.7C268.1,56.7,267,58.359,267,60.4s1.1,3.7,2.446,3.7h4.188V56.7Z" transform="translate(-267 -56.7)" fill="#c99c83"/>
            <ellipse id="Ellipse_2228" data-name="Ellipse 2228" cx="2.446" cy="3.699" rx="2.446" ry="3.699" transform="translate(4.2)" fill="#c99c83"/>
          </g>
        </g>
        <g id="Group_21989" data-name="Group 21989" transform="translate(0 5.644)">
          <path id="Path_43502" data-name="Path 43502" d="M411.241,47.4h-1.909c-1.957,0-3.532,2.16-3.532,4.821s1.587,4.821,3.532,4.821h1.909Z" transform="translate(-405.8 -47.388)" fill="#ddb898"/>
          <ellipse id="Ellipse_2229" data-name="Ellipse 2229" cx="3.532" cy="4.821" rx="3.532" ry="4.821" transform="translate(1.909)" fill="#cfa58a"/>
          <g id="Group_21988" data-name="Group 21988" transform="translate(3.174 1.122)">
            <path id="Path_43503" data-name="Path 43503" d="M371.646,56.7c-1.348,0-2.446,1.659-2.446,3.7s1.1,3.7,2.446,3.7h4.188V56.7Z" transform="translate(-369.2 -56.7)" fill="#b37f6c"/>
            <ellipse id="Ellipse_2230" data-name="Ellipse 2230" cx="2.446" cy="3.699" rx="2.446" ry="3.699" transform="translate(4.188)" fill="#c99c83"/>
          </g>
        </g>
        <g id="Group_21992" data-name="Group 21992" transform="translate(17.537 1.647)">
          <path id="Path_43504" data-name="Path 43504" d="M173.195,21.227l1.253-4.594c.453-1.694,1.6-2.733,2.816-2.733h11.42l-1.277,13.066h-11.42a2.307,2.307,0,0,1-1.062-.274C173.386,25.833,172.61,23.4,173.195,21.227Z" transform="translate(-173 -13.888)" fill="#9b655c"/>
          <g id="Group_21991" data-name="Group 21991" transform="translate(11.43)">
            <g id="Group_21990" data-name="Group 21990" transform="translate(0)">
              <path id="Path_43505" data-name="Path 43505" d="M124.636,13.8c-1.217,0-2.363,1.038-2.816,2.733l-1.241,4.606c-.585,2.172.179,4.618,1.73,5.441a2.2,2.2,0,0,0,1.062.274c1.205,0,2.339-1.026,2.792-2.709l.084-.31a.523.523,0,0,1,.453-.442.274.274,0,0,1,.167.048,2.258,2.258,0,0,0,1.157.346,1.6,1.6,0,0,0,.239-.012c1.444-.167,2.6-1.861,2.649-3.9a4.356,4.356,0,0,0-1.873-4l-.561-.3-2.768-1.492A2.1,2.1,0,0,0,124.636,13.8Z" transform="translate(-120.383 -13.8)" fill="#c1917a"/>
            </g>
            <path id="Path_43506" data-name="Path 43506" d="M144.994,94.2a.274.274,0,0,1,.167.048,2.258,2.258,0,0,0,1.157.346h-1.05a2.117,2.117,0,0,1-.668-.107A.47.47,0,0,1,144.994,94.2Z" transform="translate(-138.676 -84.606)" fill="#b37f6c"/>
          </g>
        </g>
        <ellipse id="Ellipse_2231" data-name="Ellipse 2231" cx="4.618" cy="5.62" rx="4.618" ry="5.62" transform="translate(31.622 1.969)" fill="#b37f6c"/>
        <g id="Group_21993" data-name="Group 21993" transform="translate(32.839)">
          <path id="Path_43507" data-name="Path 43507" d="M66.9,7.589c0-2.709,1.432-4.952,3.293-5.3h0L79.942,0V15.178l-9.761-2.291h0C68.332,12.541,66.9,10.31,66.9,7.589Z" transform="translate(-66.9)" fill="#cfa58a"/>
          <path id="Path_43508" data-name="Path 43508" d="M50.482,0h2.6V15.178h-2.6c-2.971,0-5.382-3.4-5.382-7.589S47.51,0,50.482,0Z" transform="translate(-37.439)" fill="#ba8873"/>
          <ellipse id="Ellipse_2232" data-name="Ellipse 2232" cx="5.382" cy="7.589" rx="5.382" ry="7.589" transform="translate(10.262 0)" fill="#cfa58a"/>
          <ellipse id="Ellipse_2233" data-name="Ellipse 2233" cx="4.475" cy="6.193" rx="4.475" ry="6.193" transform="translate(11.157 1.396)" fill="#b37f6c"/>
          <ellipse id="Ellipse_2234" data-name="Ellipse 2234" cx="3.58" cy="6.074" rx="3.58" ry="6.074" transform="translate(11.169 1.515)" fill="#9cb4d6"/>
        </g>
        <g id="Group_21994" data-name="Group 21994" transform="translate(1.478 1.647)">
          <path id="Path_43509" data-name="Path 43509" d="M298.227,13.8H286.879a2.23,2.23,0,0,0-1.074.286c-.716.394-2.566,1.384-3.329,1.8a4.343,4.343,0,0,0-1.873,4c.06,2.04,1.217,3.735,2.661,3.9a1.6,1.6,0,0,0,.239.012h1.754c.036.1.06.215.107.358.453,1.683,1.587,2.709,2.792,2.709H299.5Z" transform="translate(-280.6 -13.8)" fill="#9b655c"/>
          <path id="Path_43510" data-name="Path 43510" d="M261.846,13.8a2.229,2.229,0,0,0-1.074.286c-3.222,1.742-2.589,1.4-3.329,1.8a4.343,4.343,0,0,0-1.873,4c.06,2.04,1.217,3.735,2.661,3.9a2.219,2.219,0,0,0,1.4-.322.326.326,0,0,1,.167-.048.523.523,0,0,1,.453.442l.084.31c.453,1.683,1.587,2.709,2.792,2.709a2.307,2.307,0,0,0,1.062-.274c1.539-.835,2.315-3.27,1.73-5.441l-1.241-4.594C264.2,14.838,263.063,13.8,261.846,13.8Z" transform="translate(-244.219 -13.8)" fill="#b37f6c"/>
        </g>
        <path id="Path_43511" data-name="Path 43511" d="M350.3,29.606c0-1.909,1.014-3.484,2.315-3.735h0a1.315,1.315,0,0,1,.215-.024L359.488,25v9.2l-6.658-.847a1.63,1.63,0,0,1-.227-.024h0C351.3,33.1,350.3,31.515,350.3,29.606Z" transform="translate(-347.424 -22.017)" fill="#cfa58a"/>
        <g id="Group_21995" data-name="Group 21995" transform="translate(9.904)">
          <ellipse id="Ellipse_2235" data-name="Ellipse 2235" cx="4.618" cy="5.62" rx="4.618" ry="5.62" transform="translate(0 1.969)" fill="#b37f6c"/>
          <path id="Path_43512" data-name="Path 43512" d="M248.8,7.589c0-2.709,1.432-4.952,3.293-5.3h0L261.854,0V15.178l-9.761-2.291h0C250.232,12.541,248.8,10.31,248.8,7.589Z" transform="translate(-247.583)" fill="#cfa58a"/>
        </g>
        <path id="Path_43513" data-name="Path 43513" d="M232.382,0h2.6V15.178h-2.6c-2.971,0-5.382-3.4-5.382-7.589S229.41,0,232.382,0Z" transform="translate(-208.206)" fill="#ba8873"/>
        <g id="Group_21996" data-name="Group 21996" transform="translate(21.383 0)">
          <ellipse id="Ellipse_2236" data-name="Ellipse 2236" cx="5.382" cy="7.589" rx="5.382" ry="7.589" transform="translate(0)" fill="#cfa58a"/>
          <ellipse id="Ellipse_2237" data-name="Ellipse 2237" cx="4.475" cy="6.193" rx="4.475" ry="6.193" transform="translate(0.895 1.396)" fill="#b37f6c"/>
          <ellipse id="Ellipse_2238" data-name="Ellipse 2238" cx="3.58" cy="6.074" rx="3.58" ry="6.074" transform="translate(0.907 1.515)" fill="#9cb4d6"/>
        </g>
        <path id="Path_43514" data-name="Path 43514" d="M50.6,25.32a6.736,6.736,0,0,1,1.694-3.52h.1c1.05,0,1.909,1.181,1.909,2.637s-.859,2.637-1.909,2.637A2.084,2.084,0,0,1,50.6,25.32Z" transform="translate(-6.473 -19.199)" fill="#bcd5eb"/>
        <path id="Path_43515" data-name="Path 43515" d="M232.6,25.32a6.736,6.736,0,0,1,1.694-3.52h.1c1.05,0,1.909,1.181,1.909,2.637s-.859,2.637-1.909,2.637A2.1,2.1,0,0,1,232.6,25.32Z" transform="translate(-210.19 -19.199)" fill="#bcd5eb"/>
      </g>
      <g id="Group_22027" data-name="Group 22027" transform="translate(-775.1 4699)">
        <path id="Path_43284" data-name="Path 43284" d="M829.5,450.3H778.1c2.3-4.8,7-2.8,11.7-4.2.2-3.4-4.1-7-7.1-11.1-1.9-2.6-3.4-5.4-3-8.4.9-7.3,2.5-8.1,4.9-7.1,1.9.8,4.2,2.6,6.9,2.8-.3-6.4-7.4-18.8-4.1-25.1,2.8-5.2,6.6-4.9,9.3-1.6,2.2,2.7,3.3,8.4,5.8,7.4.1-3.9-.4-12.4,1.2-17.5,1.1-3.3,3-5.2,6.7-3.3a7.465,7.465,0,0,1,3.7,4.9c1.9,6.9-1.4,18.4-.9,24.5,2.3.5,4.5-1.2,6.4-2.5,2.7-1.8,4.9-2.8,6.2,4.1.7,3.8-.4,7.1-2,10.2-2.6,5.1-6.4,9.5-5,14.9a56.655,56.655,0,0,1,7.2,1.2c3.3,1.1,5.2,3.6,3.7,10.7C829.5,450.2,829.5,450.2,829.5,450.3Z" fill="#1a345f"/>
        <g id="Group_21907" data-name="Group 21907">
          <path id="Path_43285" data-name="Path 43285" d="M805.4,416a119.711,119.711,0,0,0,1.3-14.8.2.2,0,0,1,.4,0,105.742,105.742,0,0,1-1.3,14.9c-.3,2.3-.6,4.6-.8,6.9-1,9.6.3,18.7,1.7,26.3,0,.1,0,.3-.1.3h0a.215.215,0,0,1-.2-.2c-1.4-7.6-2.7-16.8-1.7-26.5C804.8,420.6,805.1,418.3,805.4,416Z" fill="#fff"/>
          <path id="Path_43286" data-name="Path 43286" d="M807.9,429.5a21.83,21.83,0,0,1,2.1-4.7,23.572,23.572,0,0,1,2.8-3.1,15.459,15.459,0,0,0,2.5-2.9.215.215,0,0,1,.2-.2.192.192,0,0,1,.1.3c-.1.6-1.1,1.6-2.7,3.1a23.57,23.57,0,0,0-2.8,3.1,19.976,19.976,0,0,0-2,4.5c-.2.4-.3.8-.5,1.3,0,.1-.1.1-.2.1h-.1a.367.367,0,0,1-.1-.3A3.746,3.746,0,0,0,807.9,429.5Z" fill="#fff"/>
          <path id="Path_43287" data-name="Path 43287" d="M798.4,419.7c-.3-.6-.5-1.2-.7-1.7q-.6-1.5-1.2-3.3c-.9-2.8-1.9-6-3.9-7a.367.367,0,0,1-.1-.3c0-.1.1-.2.2-.1,2.1,1.1,3.2,4.4,4.1,7.3.4,1.2.8,2.4,1.2,3.3a17.077,17.077,0,0,1,.7,1.8c1,2.5,2.3,5.6,4.1,6.2a.192.192,0,0,1,.1.3.215.215,0,0,1-.2.2h0C800.7,425.5,799.4,422.3,798.4,419.7Z" fill="#fff"/>
          <path id="Path_43288" data-name="Path 43288" d="M788,432.2c0-.1.1-.2.2-.1a11.33,11.33,0,0,0,2,.9,10.409,10.409,0,0,1,4.5,3c.6.7,1.2,1.5,1.8,2.3,1.6,2.2,3.1,4.2,5.8,4.2h0a.2.2,0,1,1,0,.4h0c-2.8,0-4.4-2.1-6-4.4a19.164,19.164,0,0,0-1.8-2.2,10.783,10.783,0,0,0-4.4-2.9c-.6-.3-1.3-.6-2-1C788,432.5,788,432.3,788,432.2Z" fill="#fff"/>
          <path id="Path_43289" data-name="Path 43289" d="M810.3,447.4h0a6.939,6.939,0,0,0,.6-1.4,7.846,7.846,0,0,1,1.5-2.9,4.148,4.148,0,0,1,3.6-1h.6a.2.2,0,0,1,0,.4H816a4.649,4.649,0,0,0-3.4.9,9.073,9.073,0,0,0-1.4,2.8c-.4,1.2-.6,1.7-.9,1.7h0a.215.215,0,0,1-.2-.2C810.1,447.5,810.2,447.4,810.3,447.4Z" fill="#fff"/>
        </g>
      </g>
    </g>
  </g>
</svg>
